# xmcd
# 
# Track frame offsets:
#     150
#     25200
#     43506
#     68461
#     90449
#     114835
#     135548
#     166518
#     187126
#     205117
#     224187
#     250148
#     276068
#     302951
# 
# Disc length: 4463
# 
# Revision: 0
# Processed by: cddbd v1.5.2PL0 Copyright (c) Steve Scherf et al.
# Submitted via: fre:ac v1.0.27
# 
DISCID=be116d0e
DTITLE=中島みゆき - 大吟醸
DYEAR=1996
DGENRE=J-pop
TTITLE0=空と君のあいだに
TTITLE1=悪女
TTITLE2=あした
TTITLE3=最後の女神
TTITLE4=浅い眠り
TTITLE5=ルージュ
TTITLE6=誕生
TTITLE7=時代
TTITLE8=わかれうた
TTITLE9=ひとり上手
TTITLE10=慟哭
TTITLE11=狼になりたい
TTITLE12=旅人のうた
TTITLE13=ファイト!
EXTD=YEAR: 1996
EXTT0=
EXTT1=
EXTT2=
EXTT3=
EXTT4=
EXTT5=
EXTT6=
EXTT7=
EXTT8=
EXTT9=
EXTT10=
EXTT11=
EXTT12=
EXTT13=
PLAYORDER=
